<svg width="1129" height="215" viewBox="0 0 1129 215" fill="none" xmlns="http://www.w3.org/2000/svg">
<circle cx="107.5" cy="107.5" r="102.5" stroke="black" stroke-width="10"/>
<circle cx="81.161" cy="81.161" r="65.1353" stroke="black" stroke-width="10"/>
<circle cx="100.15" cy="94.0242" r="41.859" stroke="black" stroke-width="10"/>
<path d="M343.864 92.3182H326.864C326.379 89.5303 325.485 87.0606 324.182 84.9091C322.879 82.7273 321.258 80.8788 319.318 79.3636C317.379 77.8485 315.167 76.7121 312.682 75.9545C310.227 75.1667 307.576 74.7727 304.727 74.7727C299.667 74.7727 295.182 76.0455 291.273 78.5909C287.364 81.1061 284.303 84.803 282.091 89.6818C279.879 94.5303 278.773 100.455 278.773 107.455C278.773 114.576 279.879 120.576 282.091 125.455C284.333 130.303 287.394 133.97 291.273 136.455C295.182 138.909 299.652 140.136 304.682 140.136C307.47 140.136 310.076 139.773 312.5 139.045C314.955 138.288 317.152 137.182 319.091 135.727C321.061 134.273 322.712 132.485 324.045 130.364C325.409 128.242 326.348 125.818 326.864 123.091L343.864 123.182C343.227 127.606 341.848 131.758 339.727 135.636C337.636 139.515 334.894 142.939 331.5 145.909C328.106 148.848 324.136 151.152 319.591 152.818C315.045 154.455 310 155.273 304.455 155.273C296.273 155.273 288.97 153.379 282.545 149.591C276.121 145.803 271.061 140.333 267.364 133.182C263.667 126.03 261.818 117.455 261.818 107.455C261.818 97.4242 263.682 88.8485 267.409 81.7273C271.136 74.5758 276.212 69.1061 282.636 65.3182C289.061 61.5303 296.333 59.6364 304.455 59.6364C309.636 59.6364 314.455 60.3636 318.909 61.8182C323.364 63.2727 327.333 65.4091 330.818 68.2273C334.303 71.0151 337.167 74.4394 339.409 78.5C341.682 82.5303 343.167 87.1364 343.864 92.3182ZM358.58 154V84.1818H375.034V154H358.58ZM366.852 74.2727C364.246 74.2727 362.004 73.4091 360.125 71.6818C358.246 69.9242 357.307 67.8182 357.307 65.3636C357.307 62.8788 358.246 60.7727 360.125 59.0454C362.004 57.2879 364.246 56.4091 366.852 56.4091C369.489 56.4091 371.731 57.2879 373.58 59.0454C375.458 60.7727 376.398 62.8788 376.398 65.3636C376.398 67.8182 375.458 69.9242 373.58 71.6818C371.731 73.4091 369.489 74.2727 366.852 74.2727ZM391.955 154V84.1818H407.909V95.8182H408.636C409.909 91.7879 412.091 88.6818 415.182 86.5C418.303 84.2879 421.864 83.1818 425.864 83.1818C426.773 83.1818 427.788 83.2273 428.909 83.3182C430.061 83.3788 431.015 83.4848 431.773 83.6364V98.7727C431.076 98.5303 429.97 98.3182 428.455 98.1364C426.97 97.9242 425.53 97.8182 424.136 97.8182C421.136 97.8182 418.439 98.4697 416.045 99.7727C413.682 101.045 411.818 102.818 410.455 105.091C409.091 107.364 408.409 109.985 408.409 112.955V154H391.955ZM470.284 155.364C463.314 155.364 457.33 153.833 452.33 150.773C447.36 147.712 443.527 143.485 440.83 138.091C438.163 132.667 436.83 126.424 436.83 119.364C436.83 112.273 438.193 106.015 440.92 100.591C443.648 95.1364 447.496 90.8939 452.466 87.8636C457.466 84.803 463.375 83.2727 470.193 83.2727C475.86 83.2727 480.875 84.3182 485.239 86.4091C489.633 88.4697 493.133 91.3939 495.739 95.1818C498.345 98.9394 499.83 103.333 500.193 108.364H484.466C483.83 105 482.314 102.197 479.92 99.9545C477.557 97.6818 474.39 96.5455 470.42 96.5455C467.057 96.5455 464.102 97.4545 461.557 99.2727C459.011 101.061 457.027 103.636 455.602 107C454.208 110.364 453.511 114.394 453.511 119.091C453.511 123.848 454.208 127.939 455.602 131.364C456.996 134.758 458.951 137.379 461.466 139.227C464.011 141.045 466.996 141.955 470.42 141.955C472.845 141.955 475.011 141.5 476.92 140.591C478.86 139.652 480.481 138.303 481.784 136.545C483.087 134.788 483.981 132.652 484.466 130.136H500.193C499.799 135.076 498.345 139.455 495.83 143.273C493.314 147.061 489.89 150.03 485.557 152.182C481.223 154.303 476.133 155.364 470.284 155.364ZM530.159 60.9091V154H513.705V60.9091H530.159ZM577.989 155.364C570.989 155.364 564.943 153.909 559.852 151C554.792 148.061 550.898 143.909 548.17 138.545C545.443 133.152 544.08 126.803 544.08 119.5C544.08 112.318 545.443 106.015 548.17 100.591C550.928 95.1364 554.777 90.8939 559.716 87.8636C564.655 84.803 570.458 83.2727 577.125 83.2727C581.428 83.2727 585.489 83.9697 589.307 85.3636C593.155 86.7273 596.549 88.8485 599.489 91.7273C602.458 94.6061 604.792 98.2727 606.489 102.727C608.186 107.152 609.034 112.424 609.034 118.545V123.591H551.807V112.5H593.261C593.231 109.348 592.549 106.545 591.216 104.091C589.883 101.606 588.019 99.6515 585.625 98.2273C583.261 96.803 580.504 96.0909 577.352 96.0909C573.989 96.0909 571.034 96.9091 568.489 98.5455C565.943 100.152 563.958 102.273 562.534 104.909C561.14 107.515 560.428 110.379 560.398 113.5V123.182C560.398 127.242 561.14 130.727 562.625 133.636C564.11 136.515 566.186 138.727 568.852 140.273C571.519 141.788 574.64 142.545 578.216 142.545C580.61 142.545 582.777 142.212 584.716 141.545C586.655 140.848 588.337 139.833 589.761 138.5C591.186 137.167 592.261 135.515 592.989 133.545L608.352 135.273C607.383 139.333 605.534 142.879 602.807 145.909C600.11 148.909 596.655 151.242 592.443 152.909C588.231 154.545 583.413 155.364 577.989 155.364ZM685.159 155.364C678.341 155.364 672.432 153.864 667.432 150.864C662.432 147.864 658.553 143.667 655.795 138.273C653.068 132.879 651.705 126.576 651.705 119.364C651.705 112.152 653.068 105.833 655.795 100.409C658.553 94.9848 662.432 90.7727 667.432 87.7727C672.432 84.7727 678.341 83.2727 685.159 83.2727C691.977 83.2727 697.886 84.7727 702.886 87.7727C707.886 90.7727 711.75 94.9848 714.477 100.409C717.235 105.833 718.614 112.152 718.614 119.364C718.614 126.576 717.235 132.879 714.477 138.273C711.75 143.667 707.886 147.864 702.886 150.864C697.886 153.864 691.977 155.364 685.159 155.364ZM685.25 142.182C688.947 142.182 692.038 141.167 694.523 139.136C697.008 137.076 698.856 134.318 700.068 130.864C701.311 127.409 701.932 123.561 701.932 119.318C701.932 115.045 701.311 111.182 700.068 107.727C698.856 104.242 697.008 101.47 694.523 99.4091C692.038 97.3485 688.947 96.3182 685.25 96.3182C681.462 96.3182 678.311 97.3485 675.795 99.4091C673.311 101.47 671.447 104.242 670.205 107.727C668.992 111.182 668.386 115.045 668.386 119.318C668.386 123.561 668.992 127.409 670.205 130.864C671.447 134.318 673.311 137.076 675.795 139.136C678.311 141.167 681.462 142.182 685.25 142.182ZM767.943 84.1818V96.9091H726.67V84.1818H767.943ZM736.989 154V77.5909C736.989 72.8939 737.958 68.9848 739.898 65.8636C741.867 62.7424 744.504 60.4091 747.807 58.8636C751.11 57.3182 754.777 56.5454 758.807 56.5454C761.655 56.5454 764.186 56.7727 766.398 57.2273C768.61 57.6818 770.246 58.0909 771.307 58.4545L768.034 71.1818C767.337 70.9697 766.458 70.7576 765.398 70.5454C764.337 70.303 763.155 70.1818 761.852 70.1818C758.792 70.1818 756.625 70.9242 755.352 72.4091C754.11 73.8636 753.489 75.9545 753.489 78.6818V154H736.989ZM809.216 75.0455V60.9091H883.489V75.0455H854.716V154H837.989V75.0455H809.216ZM889.83 154V84.1818H905.784V95.8182H906.511C907.784 91.7879 909.966 88.6818 913.057 86.5C916.178 84.2879 919.739 83.1818 923.739 83.1818C924.648 83.1818 925.663 83.2273 926.784 83.3182C927.936 83.3788 928.89 83.4848 929.648 83.6364V98.7727C928.951 98.5303 927.845 98.3182 926.33 98.1364C924.845 97.9242 923.405 97.8182 922.011 97.8182C919.011 97.8182 916.314 98.4697 913.92 99.7727C911.557 101.045 909.693 102.818 908.33 105.091C906.966 107.364 906.284 109.985 906.284 112.955V154H889.83ZM985.08 124.636V84.1818H1001.53V154H985.58V141.591H984.852C983.277 145.5 980.686 148.697 977.08 151.182C973.504 153.667 969.095 154.909 963.852 154.909C959.277 154.909 955.231 153.894 951.716 151.864C948.231 149.803 945.504 146.818 943.534 142.909C941.564 138.97 940.58 134.212 940.58 128.636V84.1818H957.034V126.091C957.034 130.515 958.246 134.03 960.67 136.636C963.095 139.242 966.277 140.545 970.216 140.545C972.64 140.545 974.989 139.955 977.261 138.773C979.534 137.591 981.398 135.833 982.852 133.5C984.337 131.136 985.08 128.182 985.08 124.636ZM1073.64 102.636L1058.64 104.273C1058.21 102.758 1057.47 101.333 1056.41 100C1055.38 98.6667 1053.98 97.5909 1052.23 96.7727C1050.47 95.9545 1048.32 95.5455 1045.77 95.5455C1042.35 95.5455 1039.47 96.2879 1037.14 97.7727C1034.83 99.2576 1033.7 101.182 1033.73 103.545C1033.7 105.576 1034.44 107.227 1035.95 108.5C1037.5 109.773 1040.05 110.818 1043.59 111.636L1055.5 114.182C1062.11 115.606 1067.02 117.864 1070.23 120.955C1073.47 124.045 1075.11 128.091 1075.14 133.091C1075.11 137.485 1073.82 141.364 1071.27 144.727C1068.76 148.061 1065.26 150.667 1060.77 152.545C1056.29 154.424 1051.14 155.364 1045.32 155.364C1036.77 155.364 1029.89 153.576 1024.68 150C1019.47 146.394 1016.36 141.379 1015.36 134.955L1031.41 133.409C1032.14 136.561 1033.68 138.939 1036.05 140.545C1038.41 142.152 1041.48 142.955 1045.27 142.955C1049.18 142.955 1052.32 142.152 1054.68 140.545C1057.08 138.939 1058.27 136.955 1058.27 134.591C1058.27 132.591 1057.5 130.939 1055.95 129.636C1054.44 128.333 1052.08 127.333 1048.86 126.636L1036.95 124.136C1030.26 122.742 1025.3 120.394 1022.09 117.091C1018.88 113.758 1017.29 109.545 1017.32 104.455C1017.29 100.152 1018.45 96.4242 1020.82 93.2727C1023.21 90.0909 1026.53 87.6364 1030.77 85.9091C1035.05 84.1515 1039.97 83.2727 1045.55 83.2727C1053.73 83.2727 1060.17 85.0152 1064.86 88.5C1069.59 91.9848 1072.52 96.697 1073.64 102.636ZM1123.57 84.1818V96.9091H1083.43V84.1818H1123.57ZM1093.34 67.4545H1109.8V133C1109.8 135.212 1110.13 136.909 1110.8 138.091C1111.49 139.242 1112.4 140.03 1113.52 140.455C1114.64 140.879 1115.89 141.091 1117.25 141.091C1118.28 141.091 1119.22 141.015 1120.07 140.864C1120.95 140.712 1121.61 140.576 1122.07 140.455L1124.84 153.318C1123.96 153.621 1122.7 153.955 1121.07 154.318C1119.46 154.682 1117.49 154.894 1115.16 154.955C1111.04 155.076 1107.33 154.455 1104.02 153.091C1100.72 151.697 1098.1 149.545 1096.16 146.636C1094.25 143.727 1093.31 140.091 1093.34 135.727V67.4545Z" fill="black"/>
</svg>
