<svg width="864" height="100" viewBox="0 0 864 100" fill="none" xmlns="http://www.w3.org/2000/svg">
<path d="M82.8636 36.3182H65.8636C65.3788 33.5303 64.4849 31.0606 63.1818 28.9091C61.8788 26.7273 60.2576 24.8788 58.3182 23.3636C56.3788 21.8485 54.1667 20.7121 51.6818 19.9545C49.2273 19.1667 46.5758 18.7727 43.7273 18.7727C38.6667 18.7727 34.1818 20.0455 30.2727 22.5909C26.3636 25.1061 23.303 28.803 21.0909 33.6818C18.8788 38.5303 17.7727 44.4545 17.7727 51.4545C17.7727 58.5758 18.8788 64.5758 21.0909 69.4545C23.3333 74.303 26.3939 77.9697 30.2727 80.4545C34.1818 82.9091 38.6515 84.1364 43.6818 84.1364C46.4697 84.1364 49.0758 83.7727 51.5 83.0455C53.9545 82.2879 56.1515 81.1818 58.0909 79.7273C60.0606 78.2727 61.7121 76.4848 63.0455 74.3636C64.4091 72.2424 65.3485 69.8182 65.8636 67.0909L82.8636 67.1818C82.2273 71.6061 80.8485 75.7576 78.7273 79.6364C76.6364 83.5152 73.8939 86.9394 70.5 89.9091C67.1061 92.8485 63.1364 95.1515 58.5909 96.8182C54.0455 98.4545 49 99.2727 43.4545 99.2727C35.2727 99.2727 27.9697 97.3788 21.5455 93.5909C15.1212 89.803 10.0606 84.3333 6.36364 77.1818C2.66667 70.0303 0.818182 61.4545 0.818182 51.4545C0.818182 41.4242 2.68182 32.8485 6.40909 25.7273C10.1364 18.5758 15.2121 13.1061 21.6364 9.31818C28.0606 5.5303 35.3333 3.63636 43.4545 3.63636C48.6364 3.63636 53.4545 4.36363 57.9091 5.81818C62.3636 7.27273 66.3333 9.40909 69.8182 12.2273C73.303 15.0151 76.1667 18.4394 78.4091 22.5C80.6818 26.5303 82.1667 31.1364 82.8636 36.3182ZM97.5795 98V28.1818H114.034V98H97.5795ZM105.852 18.2727C103.246 18.2727 101.004 17.4091 99.125 15.6818C97.2462 13.9242 96.3068 11.8182 96.3068 9.36363C96.3068 6.87878 97.2462 4.77272 99.125 3.04545C101.004 1.28787 103.246 0.409088 105.852 0.409088C108.489 0.409088 110.731 1.28787 112.58 3.04545C114.458 4.77272 115.398 6.87878 115.398 9.36363C115.398 11.8182 114.458 13.9242 112.58 15.6818C110.731 17.4091 108.489 18.2727 105.852 18.2727ZM130.955 98V28.1818H146.909V39.8182H147.636C148.909 35.7879 151.091 32.6818 154.182 30.5C157.303 28.2879 160.864 27.1818 164.864 27.1818C165.773 27.1818 166.788 27.2273 167.909 27.3182C169.061 27.3788 170.015 27.4848 170.773 27.6364V42.7727C170.076 42.5303 168.97 42.3182 167.455 42.1364C165.97 41.9242 164.53 41.8182 163.136 41.8182C160.136 41.8182 157.439 42.4697 155.045 43.7727C152.682 45.0455 150.818 46.8182 149.455 49.0909C148.091 51.3636 147.409 53.9848 147.409 56.9545V98H130.955ZM209.284 99.3636C202.314 99.3636 196.33 97.8333 191.33 94.7727C186.36 91.7121 182.527 87.4848 179.83 82.0909C177.163 76.6667 175.83 70.4242 175.83 63.3636C175.83 56.2727 177.193 50.0152 179.92 44.5909C182.648 39.1364 186.496 34.8939 191.466 31.8636C196.466 28.803 202.375 27.2727 209.193 27.2727C214.86 27.2727 219.875 28.3182 224.239 30.4091C228.633 32.4697 232.133 35.3939 234.739 39.1818C237.345 42.9394 238.83 47.3333 239.193 52.3636H223.466C222.83 49 221.314 46.197 218.92 43.9545C216.557 41.6818 213.39 40.5455 209.42 40.5455C206.057 40.5455 203.102 41.4545 200.557 43.2727C198.011 45.0606 196.027 47.6364 194.602 51C193.208 54.3636 192.511 58.3939 192.511 63.0909C192.511 67.8485 193.208 71.9394 194.602 75.3636C195.996 78.7576 197.951 81.3788 200.466 83.2273C203.011 85.0455 205.996 85.9545 209.42 85.9545C211.845 85.9545 214.011 85.5 215.92 84.5909C217.86 83.6515 219.481 82.303 220.784 80.5455C222.087 78.7879 222.981 76.6515 223.466 74.1364H239.193C238.799 79.0758 237.345 83.4545 234.83 87.2727C232.314 91.0606 228.89 94.0303 224.557 96.1818C220.223 98.303 215.133 99.3636 209.284 99.3636ZM269.159 4.90909V98H252.705V4.90909H269.159ZM316.989 99.3636C309.989 99.3636 303.943 97.9091 298.852 95C293.792 92.0606 289.898 87.9091 287.17 82.5455C284.443 77.1515 283.08 70.803 283.08 63.5C283.08 56.3182 284.443 50.0152 287.17 44.5909C289.928 39.1364 293.777 34.8939 298.716 31.8636C303.655 28.803 309.458 27.2727 316.125 27.2727C320.428 27.2727 324.489 27.9697 328.307 29.3636C332.155 30.7273 335.549 32.8485 338.489 35.7273C341.458 38.6061 343.792 42.2727 345.489 46.7273C347.186 51.1515 348.034 56.4242 348.034 62.5455V67.5909H290.807V56.5H332.261C332.231 53.3485 331.549 50.5455 330.216 48.0909C328.883 45.6061 327.019 43.6515 324.625 42.2273C322.261 40.803 319.504 40.0909 316.352 40.0909C312.989 40.0909 310.034 40.9091 307.489 42.5455C304.943 44.1515 302.958 46.2727 301.534 48.9091C300.14 51.5151 299.428 54.3788 299.398 57.5V67.1818C299.398 71.2424 300.14 74.7273 301.625 77.6364C303.11 80.5152 305.186 82.7273 307.852 84.2727C310.519 85.7879 313.64 86.5455 317.216 86.5455C319.61 86.5455 321.777 86.2121 323.716 85.5455C325.655 84.8485 327.337 83.8333 328.761 82.5C330.186 81.1667 331.261 79.5152 331.989 77.5455L347.352 79.2727C346.383 83.3333 344.534 86.8788 341.807 89.9091C339.11 92.9091 335.655 95.2424 331.443 96.9091C327.231 98.5455 322.413 99.3636 316.989 99.3636ZM424.159 99.3636C417.341 99.3636 411.432 97.8636 406.432 94.8636C401.432 91.8636 397.553 87.6667 394.795 82.2727C392.068 76.8788 390.705 70.5758 390.705 63.3636C390.705 56.1515 392.068 49.8333 394.795 44.4091C397.553 38.9848 401.432 34.7727 406.432 31.7727C411.432 28.7727 417.341 27.2727 424.159 27.2727C430.977 27.2727 436.886 28.7727 441.886 31.7727C446.886 34.7727 450.75 38.9848 453.477 44.4091C456.235 49.8333 457.614 56.1515 457.614 63.3636C457.614 70.5758 456.235 76.8788 453.477 82.2727C450.75 87.6667 446.886 91.8636 441.886 94.8636C436.886 97.8636 430.977 99.3636 424.159 99.3636ZM424.25 86.1818C427.947 86.1818 431.038 85.1667 433.523 83.1364C436.008 81.0758 437.856 78.3182 439.068 74.8636C440.311 71.4091 440.932 67.5606 440.932 63.3182C440.932 59.0455 440.311 55.1818 439.068 51.7273C437.856 48.2424 436.008 45.4697 433.523 43.4091C431.038 41.3485 427.947 40.3182 424.25 40.3182C420.462 40.3182 417.311 41.3485 414.795 43.4091C412.311 45.4697 410.447 48.2424 409.205 51.7273C407.992 55.1818 407.386 59.0455 407.386 63.3182C407.386 67.5606 407.992 71.4091 409.205 74.8636C410.447 78.3182 412.311 81.0758 414.795 83.1364C417.311 85.1667 420.462 86.1818 424.25 86.1818ZM506.943 28.1818V40.9091H465.67V28.1818H506.943ZM475.989 98V21.5909C475.989 16.8939 476.958 12.9848 478.898 9.86363C480.867 6.74242 483.504 4.40909 486.807 2.86363C490.11 1.31818 493.777 0.545448 497.807 0.545448C500.655 0.545448 503.186 0.772723 505.398 1.22727C507.61 1.68182 509.246 2.09091 510.307 2.45454L507.034 15.1818C506.337 14.9697 505.458 14.7576 504.398 14.5454C503.337 14.303 502.155 14.1818 500.852 14.1818C497.792 14.1818 495.625 14.9242 494.352 16.4091C493.11 17.8636 492.489 19.9545 492.489 22.6818V98H475.989ZM548.216 19.0455V4.90909H622.489V19.0455H593.716V98H576.989V19.0455H548.216ZM628.83 98V28.1818H644.784V39.8182H645.511C646.784 35.7879 648.966 32.6818 652.057 30.5C655.178 28.2879 658.739 27.1818 662.739 27.1818C663.648 27.1818 664.663 27.2273 665.784 27.3182C666.936 27.3788 667.89 27.4848 668.648 27.6364V42.7727C667.951 42.5303 666.845 42.3182 665.33 42.1364C663.845 41.9242 662.405 41.8182 661.011 41.8182C658.011 41.8182 655.314 42.4697 652.92 43.7727C650.557 45.0455 648.693 46.8182 647.33 49.0909C645.966 51.3636 645.284 53.9848 645.284 56.9545V98H628.83ZM724.08 68.6364V28.1818H740.534V98H724.58V85.5909H723.852C722.277 89.5 719.686 92.697 716.08 95.1818C712.504 97.6667 708.095 98.9091 702.852 98.9091C698.277 98.9091 694.231 97.8939 690.716 95.8636C687.231 93.803 684.504 90.8182 682.534 86.9091C680.564 82.9697 679.58 78.2121 679.58 72.6364V28.1818H696.034V70.0909C696.034 74.5152 697.246 78.0303 699.67 80.6364C702.095 83.2424 705.277 84.5455 709.216 84.5455C711.64 84.5455 713.989 83.9545 716.261 82.7727C718.534 81.5909 720.398 79.8333 721.852 77.5C723.337 75.1364 724.08 72.1818 724.08 68.6364ZM812.636 46.6364L797.636 48.2727C797.212 46.7576 796.47 45.3333 795.409 44C794.379 42.6667 792.985 41.5909 791.227 40.7727C789.47 39.9545 787.318 39.5455 784.773 39.5455C781.348 39.5455 778.47 40.2879 776.136 41.7727C773.833 43.2576 772.697 45.1818 772.727 47.5455C772.697 49.5758 773.439 51.2273 774.955 52.5C776.5 53.7727 779.045 54.8182 782.591 55.6364L794.5 58.1818C801.106 59.6061 806.015 61.8636 809.227 64.9545C812.47 68.0455 814.106 72.0909 814.136 77.0909C814.106 81.4848 812.818 85.3636 810.273 88.7273C807.758 92.0606 804.258 94.6667 799.773 96.5455C795.288 98.4242 790.136 99.3636 784.318 99.3636C775.773 99.3636 768.894 97.5758 763.682 94C758.47 90.3939 755.364 85.3788 754.364 78.9545L770.409 77.4091C771.136 80.5606 772.682 82.9394 775.045 84.5455C777.409 86.1515 780.485 86.9545 784.273 86.9545C788.182 86.9545 791.318 86.1515 793.682 84.5455C796.076 82.9394 797.273 80.9545 797.273 78.5909C797.273 76.5909 796.5 74.9394 794.955 73.6364C793.439 72.3333 791.076 71.3333 787.864 70.6364L775.955 68.1364C769.258 66.7424 764.303 64.3939 761.091 61.0909C757.879 57.7576 756.288 53.5455 756.318 48.4545C756.288 44.1515 757.455 40.4242 759.818 37.2727C762.212 34.0909 765.53 31.6364 769.773 29.9091C774.045 28.1515 778.97 27.2727 784.545 27.2727C792.727 27.2727 799.167 29.0152 803.864 32.5C808.591 35.9848 811.515 40.697 812.636 46.6364ZM862.568 28.1818V40.9091H822.432V28.1818H862.568ZM832.341 11.4545H848.795V77C848.795 79.2121 849.129 80.9091 849.795 82.0909C850.492 83.2424 851.402 84.0303 852.523 84.4545C853.644 84.8788 854.886 85.0909 856.25 85.0909C857.28 85.0909 858.22 85.0152 859.068 84.8636C859.947 84.7121 860.614 84.5758 861.068 84.4545L863.841 97.3182C862.962 97.6212 861.705 97.9545 860.068 98.3182C858.462 98.6818 856.492 98.8939 854.159 98.9545C850.038 99.0758 846.326 98.4545 843.023 97.0909C839.72 95.697 837.098 93.5455 835.159 90.6364C833.25 87.7273 832.311 84.0909 832.341 79.7273V11.4545Z" fill="black"/>
</svg>
